<mxfile host="Electron" agent="Mozilla/5.0 (Windows NT 10.0; Win64; x64) AppleWebKit/537.36 (KHTML, like Gecko) draw.io/24.7.17 Chrome/128.0.6613.36 Electron/32.0.1 Safari/537.36" version="24.7.17">
  <diagram name="Page-1" id="bYD8wNSKdl0FuzGgsl3l">
    <mxGraphModel dx="2074" dy="1205" grid="1" gridSize="10" guides="1" tooltips="1" connect="1" arrows="1" fold="1" page="1" pageScale="1" pageWidth="850" pageHeight="1100" math="0" shadow="0">
      <root>
        <mxCell id="0" />
        <mxCell id="1" parent="0" />
        <mxCell id="QE4SQUGZQP30K1Z_zogS-63" value="Classification step&lt;div&gt;&lt;br&gt;&lt;/div&gt;&lt;div&gt;&lt;br&gt;&lt;/div&gt;&lt;div&gt;&lt;br&gt;&lt;/div&gt;&lt;div&gt;&lt;br&gt;&lt;/div&gt;&lt;div&gt;&lt;br&gt;&lt;/div&gt;&lt;div&gt;&lt;br&gt;&lt;/div&gt;&lt;div&gt;&lt;br&gt;&lt;/div&gt;&lt;div&gt;&lt;br&gt;&lt;/div&gt;&lt;div&gt;&lt;br&gt;&lt;/div&gt;" style="shape=loopLimit;whiteSpace=wrap;html=1;fillColor=#1ba1e2;fontColor=#ffffff;strokeColor=#006EAF;gradientColor=#92D7F0;" parent="1" vertex="1">
          <mxGeometry x="350" y="200" width="400" height="160" as="geometry" />
        </mxCell>
        <mxCell id="QE4SQUGZQP30K1Z_zogS-67" style="edgeStyle=orthogonalEdgeStyle;rounded=0;orthogonalLoop=1;jettySize=auto;html=1;entryX=0;entryY=0.5;entryDx=0;entryDy=0;" parent="1" source="QE4SQUGZQP30K1Z_zogS-1" target="QE4SQUGZQP30K1Z_zogS-2" edge="1">
          <mxGeometry relative="1" as="geometry" />
        </mxCell>
        <mxCell id="QE4SQUGZQP30K1Z_zogS-1" value="Dataset monitoring and validation" style="rounded=1;whiteSpace=wrap;html=1;fillColor=#f0a30a;fontColor=#000000;strokeColor=#BD7000;" parent="1" vertex="1">
          <mxGeometry x="170" y="260" width="80" height="60" as="geometry" />
        </mxCell>
        <mxCell id="QE4SQUGZQP30K1Z_zogS-2" value="Identifying new unique products" style="rounded=1;whiteSpace=wrap;html=1;fillColor=#f0a30a;fontColor=#000000;strokeColor=#BD7000;" parent="1" vertex="1">
          <mxGeometry x="260" y="250" width="80" height="80" as="geometry" />
        </mxCell>
        <mxCell id="QE4SQUGZQP30K1Z_zogS-70" style="edgeStyle=orthogonalEdgeStyle;rounded=0;orthogonalLoop=1;jettySize=auto;html=1;entryX=0;entryY=0.5;entryDx=0;entryDy=0;" parent="1" source="QE4SQUGZQP30K1Z_zogS-3" target="QE4SQUGZQP30K1Z_zogS-4" edge="1">
          <mxGeometry relative="1" as="geometry" />
        </mxCell>
        <mxCell id="QE4SQUGZQP30K1Z_zogS-3" value="Filtering retailer file for section of interest" style="rounded=1;whiteSpace=wrap;html=1;fillColor=#1ba1e2;fontColor=#ffffff;strokeColor=#006EAF;" parent="1" vertex="1">
          <mxGeometry x="359" y="259" width="95" height="60" as="geometry" />
        </mxCell>
        <mxCell id="QE4SQUGZQP30K1Z_zogS-72" style="edgeStyle=orthogonalEdgeStyle;rounded=0;orthogonalLoop=1;jettySize=auto;html=1;entryX=0;entryY=0.5;entryDx=0;entryDy=0;" parent="1" source="QE4SQUGZQP30K1Z_zogS-4" target="QE4SQUGZQP30K1Z_zogS-5" edge="1">
          <mxGeometry relative="1" as="geometry" />
        </mxCell>
        <mxCell id="QE4SQUGZQP30K1Z_zogS-4" value="Classification" style="rounded=1;whiteSpace=wrap;html=1;fillColor=#0050ef;strokeColor=#001DBC;fontColor=#ffffff;" parent="1" vertex="1">
          <mxGeometry x="465" y="239" width="80" height="100" as="geometry" />
        </mxCell>
        <mxCell id="QE4SQUGZQP30K1Z_zogS-5" value="Outlier detection" style="rounded=1;whiteSpace=wrap;html=1;fillColor=#1ba1e2;strokeColor=#006EAF;fontColor=#ffffff;" parent="1" vertex="1">
          <mxGeometry x="556" y="259" width="70" height="60" as="geometry" />
        </mxCell>
        <mxCell id="QE4SQUGZQP30K1Z_zogS-6" value="Sampling + filtering + aggregation" style="rounded=1;whiteSpace=wrap;html=1;fillColor=#f0a30a;fontColor=#000000;strokeColor=#BD7000;" parent="1" vertex="1">
          <mxGeometry x="765" y="260" width="95" height="60" as="geometry" />
        </mxCell>
        <mxCell id="QE4SQUGZQP30K1Z_zogS-75" style="edgeStyle=orthogonalEdgeStyle;rounded=0;orthogonalLoop=1;jettySize=auto;html=1;entryX=0;entryY=0.5;entryDx=0;entryDy=0;" parent="1" source="QE4SQUGZQP30K1Z_zogS-7" target="QE4SQUGZQP30K1Z_zogS-6" edge="1">
          <mxGeometry relative="1" as="geometry" />
        </mxCell>
        <mxCell id="QE4SQUGZQP30K1Z_zogS-7" value="Validation (including of classification errors)" style="ellipse;whiteSpace=wrap;html=1;aspect=fixed;fillColor=#60a917;fontColor=#ffffff;strokeColor=#2D7600;" parent="1" vertex="1">
          <mxGeometry x="646" y="240" width="100" height="100" as="geometry" />
        </mxCell>
        <mxCell id="QE4SQUGZQP30K1Z_zogS-66" style="edgeStyle=orthogonalEdgeStyle;rounded=0;orthogonalLoop=1;jettySize=auto;html=1;" parent="1" source="QE4SQUGZQP30K1Z_zogS-61" target="QE4SQUGZQP30K1Z_zogS-1" edge="1">
          <mxGeometry relative="1" as="geometry" />
        </mxCell>
        <mxCell id="QE4SQUGZQP30K1Z_zogS-61" value="Dataset&amp;nbsp;&lt;div&gt;received&lt;/div&gt;" style="verticalLabelPosition=bottom;html=1;verticalAlign=top;align=center;strokeColor=none;fillColor=#00BEF2;shape=mxgraph.azure.file_2;pointerEvents=1;" parent="1" vertex="1">
          <mxGeometry x="100" y="265" width="47.5" height="50" as="geometry" />
        </mxCell>
        <mxCell id="QE4SQUGZQP30K1Z_zogS-64" value="&lt;h1 style=&quot;margin-top: 0px;&quot;&gt;&lt;font style=&quot;font-size: 16px;&quot;&gt;&lt;u&gt;Option 1:&lt;/u&gt;&lt;/font&gt;&lt;/h1&gt;&lt;p&gt;Use an initial step to filter out proportion of data from each file based on subset wanetd before classification&lt;/p&gt;" style="text;html=1;whiteSpace=wrap;overflow=hidden;rounded=0;" parent="1" vertex="1">
          <mxGeometry x="100" y="150" width="250" height="110" as="geometry" />
        </mxCell>
        <mxCell id="QE4SQUGZQP30K1Z_zogS-68" style="edgeStyle=orthogonalEdgeStyle;rounded=0;orthogonalLoop=1;jettySize=auto;html=1;entryX=0.016;entryY=0.508;entryDx=0;entryDy=0;entryPerimeter=0;" parent="1" source="QE4SQUGZQP30K1Z_zogS-2" target="QE4SQUGZQP30K1Z_zogS-3" edge="1">
          <mxGeometry relative="1" as="geometry" />
        </mxCell>
        <mxCell id="QE4SQUGZQP30K1Z_zogS-74" style="edgeStyle=orthogonalEdgeStyle;rounded=0;orthogonalLoop=1;jettySize=auto;html=1;entryX=-0.004;entryY=0.488;entryDx=0;entryDy=0;entryPerimeter=0;" parent="1" source="QE4SQUGZQP30K1Z_zogS-5" target="QE4SQUGZQP30K1Z_zogS-7" edge="1">
          <mxGeometry relative="1" as="geometry" />
        </mxCell>
        <mxCell id="QE4SQUGZQP30K1Z_zogS-76" value="Classification step&lt;div&gt;&lt;br&gt;&lt;/div&gt;&lt;div&gt;&lt;br&gt;&lt;/div&gt;&lt;div&gt;&lt;br&gt;&lt;/div&gt;&lt;div&gt;&lt;br&gt;&lt;/div&gt;&lt;div&gt;&lt;br&gt;&lt;/div&gt;&lt;div&gt;&lt;br&gt;&lt;/div&gt;&lt;div&gt;&lt;br&gt;&lt;/div&gt;&lt;div&gt;&lt;br&gt;&lt;/div&gt;&lt;div&gt;&lt;br&gt;&lt;/div&gt;" style="shape=loopLimit;whiteSpace=wrap;html=1;fillColor=#1ba1e2;fontColor=#ffffff;strokeColor=#006EAF;gradientColor=#92D7F0;" parent="1" vertex="1">
          <mxGeometry x="350" y="440" width="400" height="160" as="geometry" />
        </mxCell>
        <mxCell id="QE4SQUGZQP30K1Z_zogS-77" style="edgeStyle=orthogonalEdgeStyle;rounded=0;orthogonalLoop=1;jettySize=auto;html=1;entryX=0;entryY=0.5;entryDx=0;entryDy=0;" parent="1" source="QE4SQUGZQP30K1Z_zogS-78" target="QE4SQUGZQP30K1Z_zogS-79" edge="1">
          <mxGeometry relative="1" as="geometry" />
        </mxCell>
        <mxCell id="QE4SQUGZQP30K1Z_zogS-78" value="Dataset monitoring and validation" style="rounded=1;whiteSpace=wrap;html=1;fillColor=#f0a30a;fontColor=#000000;strokeColor=#BD7000;" parent="1" vertex="1">
          <mxGeometry x="170" y="500" width="80" height="60" as="geometry" />
        </mxCell>
        <mxCell id="QE4SQUGZQP30K1Z_zogS-93" style="edgeStyle=orthogonalEdgeStyle;rounded=0;orthogonalLoop=1;jettySize=auto;html=1;" parent="1" source="QE4SQUGZQP30K1Z_zogS-79" target="QE4SQUGZQP30K1Z_zogS-83" edge="1">
          <mxGeometry relative="1" as="geometry" />
        </mxCell>
        <mxCell id="QE4SQUGZQP30K1Z_zogS-79" value="Identifying new unique products" style="rounded=1;whiteSpace=wrap;html=1;fillColor=#f0a30a;fontColor=#000000;strokeColor=#BD7000;" parent="1" vertex="1">
          <mxGeometry x="260" y="490" width="80" height="80" as="geometry" />
        </mxCell>
        <mxCell id="QE4SQUGZQP30K1Z_zogS-95" style="edgeStyle=orthogonalEdgeStyle;rounded=0;orthogonalLoop=1;jettySize=auto;html=1;" parent="1" source="QE4SQUGZQP30K1Z_zogS-81" target="QE4SQUGZQP30K1Z_zogS-85" edge="1">
          <mxGeometry relative="1" as="geometry" />
        </mxCell>
        <mxCell id="QE4SQUGZQP30K1Z_zogS-81" value="Selection of the strata of interest" style="rounded=1;whiteSpace=wrap;html=1;fillColor=#1ba1e2;fontColor=#ffffff;strokeColor=#006EAF;" parent="1" vertex="1">
          <mxGeometry x="671" y="501" width="75" height="60" as="geometry" />
        </mxCell>
        <mxCell id="QE4SQUGZQP30K1Z_zogS-82" style="edgeStyle=orthogonalEdgeStyle;rounded=0;orthogonalLoop=1;jettySize=auto;html=1;entryX=0;entryY=0.5;entryDx=0;entryDy=0;" parent="1" source="QE4SQUGZQP30K1Z_zogS-83" target="QE4SQUGZQP30K1Z_zogS-84" edge="1">
          <mxGeometry relative="1" as="geometry" />
        </mxCell>
        <mxCell id="QE4SQUGZQP30K1Z_zogS-83" value="Classification" style="rounded=1;whiteSpace=wrap;html=1;fillColor=#0050ef;strokeColor=#001DBC;fontColor=#ffffff;" parent="1" vertex="1">
          <mxGeometry x="361" y="480" width="80" height="100" as="geometry" />
        </mxCell>
        <mxCell id="QE4SQUGZQP30K1Z_zogS-84" value="Outlier detection" style="rounded=1;whiteSpace=wrap;html=1;fillColor=#1ba1e2;strokeColor=#006EAF;fontColor=#ffffff;" parent="1" vertex="1">
          <mxGeometry x="459" y="500" width="70" height="60" as="geometry" />
        </mxCell>
        <mxCell id="QE4SQUGZQP30K1Z_zogS-85" value="Sampling + filtering + aggregation" style="rounded=1;whiteSpace=wrap;html=1;fillColor=#f0a30a;fontColor=#000000;strokeColor=#BD7000;" parent="1" vertex="1">
          <mxGeometry x="765" y="500" width="95" height="60" as="geometry" />
        </mxCell>
        <mxCell id="QE4SQUGZQP30K1Z_zogS-87" value="Validation (including of classification errors)" style="ellipse;whiteSpace=wrap;html=1;aspect=fixed;fillColor=#60a917;fontColor=#ffffff;strokeColor=#2D7600;" parent="1" vertex="1">
          <mxGeometry x="552" y="481" width="100" height="100" as="geometry" />
        </mxCell>
        <mxCell id="QE4SQUGZQP30K1Z_zogS-88" style="edgeStyle=orthogonalEdgeStyle;rounded=0;orthogonalLoop=1;jettySize=auto;html=1;" parent="1" source="QE4SQUGZQP30K1Z_zogS-89" target="QE4SQUGZQP30K1Z_zogS-78" edge="1">
          <mxGeometry relative="1" as="geometry" />
        </mxCell>
        <mxCell id="QE4SQUGZQP30K1Z_zogS-89" value="Dataset&amp;nbsp;&lt;div&gt;received&lt;/div&gt;" style="verticalLabelPosition=bottom;html=1;verticalAlign=top;align=center;strokeColor=none;fillColor=#00BEF2;shape=mxgraph.azure.file_2;pointerEvents=1;" parent="1" vertex="1">
          <mxGeometry x="100" y="505" width="47.5" height="50" as="geometry" />
        </mxCell>
        <mxCell id="QE4SQUGZQP30K1Z_zogS-90" value="&lt;h1 style=&quot;margin-top: 0px;&quot;&gt;&lt;font style=&quot;font-size: 16px;&quot;&gt;&lt;u&gt;Option 2:&lt;/u&gt;&lt;/font&gt;&lt;/h1&gt;&lt;p&gt;Classify all the data each period, validate all categories, and then focus on the strata of interest&lt;/p&gt;" style="text;html=1;whiteSpace=wrap;overflow=hidden;rounded=0;" parent="1" vertex="1">
          <mxGeometry x="100" y="390" width="250" height="110" as="geometry" />
        </mxCell>
        <mxCell id="QE4SQUGZQP30K1Z_zogS-92" style="edgeStyle=orthogonalEdgeStyle;rounded=0;orthogonalLoop=1;jettySize=auto;html=1;entryX=-0.004;entryY=0.488;entryDx=0;entryDy=0;entryPerimeter=0;" parent="1" source="QE4SQUGZQP30K1Z_zogS-84" target="QE4SQUGZQP30K1Z_zogS-87" edge="1">
          <mxGeometry relative="1" as="geometry" />
        </mxCell>
        <mxCell id="QE4SQUGZQP30K1Z_zogS-94" style="edgeStyle=orthogonalEdgeStyle;rounded=0;orthogonalLoop=1;jettySize=auto;html=1;entryX=0.006;entryY=0.515;entryDx=0;entryDy=0;entryPerimeter=0;" parent="1" source="QE4SQUGZQP30K1Z_zogS-87" target="QE4SQUGZQP30K1Z_zogS-81" edge="1">
          <mxGeometry relative="1" as="geometry" />
        </mxCell>
        <mxCell id="QE4SQUGZQP30K1Z_zogS-96" value="&lt;b&gt;&lt;font style=&quot;font-size: 15px;&quot;&gt;Approaches to implementing classification&lt;/font&gt;&lt;/b&gt;" style="text;html=1;align=center;verticalAlign=middle;whiteSpace=wrap;rounded=0;" parent="1" vertex="1">
          <mxGeometry x="250" y="110" width="370" height="30" as="geometry" />
        </mxCell>
      </root>
    </mxGraphModel>
  </diagram>
</mxfile>
